<svg width="38" height="37" viewBox="0 0 38 37" fill="none" xmlns="http://www.w3.org/2000/svg">
<path d="M36.8678 30.8284C37.464 31.4682 37.7885 32.3144 37.7731 33.1887C37.7577 34.0631 37.4035 34.8973 36.7851 35.5157C36.1668 36.134 35.3325 36.4882 34.4582 36.5037C33.5838 36.5191 32.7376 36.1945 32.0978 35.5984L17.4728 20.9734C16.8408 20.3406 16.4858 19.4828 16.4858 18.5884C16.4858 17.694 16.8408 16.8362 17.4728 16.2034L32.0978 1.57838C32.7376 0.982219 33.5838 0.657661 34.4582 0.673088C35.3325 0.688514 36.1668 1.04272 36.7851 1.66108C37.4035 2.27944 37.7577 3.11367 37.7731 3.98803C37.7885 4.86238 37.464 5.70859 36.8678 6.34838L24.6278 18.5884L36.8678 30.8284ZM4.10783 0.588376C3.21272 0.588376 2.35428 0.943955 1.72134 1.57689C1.08841 2.20983 0.732825 3.06827 0.732825 3.96338L0.732823 33.2134C0.732823 34.1085 1.08841 34.9669 1.72134 35.5999C2.35427 36.2328 3.21272 36.5884 4.10782 36.5884C5.00293 36.5884 5.86137 36.2328 6.49431 35.5999C7.12724 34.9669 7.48282 34.1085 7.48282 33.2134L7.48283 3.96338C7.48283 2.10038 5.97083 0.588376 4.10783 0.588376Z" fill="white"/>
</svg>
