<svg width="19" height="33" viewBox="0 0 19 33" fill="none" xmlns="http://www.w3.org/2000/svg">
<path d="M17.7283 31.2678C17.9871 31.0095 18.1924 30.7028 18.3325 30.365C18.4726 30.0273 18.5447 29.6653 18.5447 29.2997C18.5447 28.9341 18.4726 28.572 18.3325 28.2343C18.1925 27.8966 17.9871 27.5898 17.7283 27.3316L6.89667 16.4999L17.7283 5.66822C18.2503 5.14624 18.5436 4.43829 18.5436 3.7001C18.5436 2.96191 18.2503 2.25395 17.7283 1.73197C17.2064 1.20999 16.4984 0.916752 15.7602 0.916752C15.022 0.916752 14.3141 1.20999 13.7921 1.73197L0.978334 14.5457C0.719537 14.804 0.514217 15.1108 0.374126 15.4485C0.234037 15.7862 0.16193 16.1482 0.16193 16.5138C0.16193 16.8795 0.234037 17.2415 0.374126 17.5792C0.514217 17.9169 0.719537 18.2237 0.978334 18.482L13.7921 31.2957C14.8529 32.3566 16.6396 32.3566 17.7283 31.2678Z" fill="white"/>
</svg>
